<svg width="58" height="51" viewBox="0 0 58 51" fill="none" xmlns="http://www.w3.org/2000/svg">
<path d="M23.281 11.9107L12.6115 37.9454L12.2794 37.8127C10.1969 39.6849 6.56884 38.6348 4.38339 37.4399C4.06837 37.2657 3.75955 37.0814 3.46206 36.8802C1.75958 35.7411 0.411483 34.0714 0.0758404 32.0304C-0.200088 30.3546 0.271831 28.5832 1.57491 27.4294C3.5831 25.6499 6.29764 26.2259 8.34466 27.5972C9.08577 28.091 9.76999 28.672 10.3976 29.2976C10.6923 29.5942 10.9822 29.9081 11.2608 30.2386L23.6532 0L58 13.7122L43.0833 50.1105L42.7513 49.9779C40.6688 51.8501 37.0424 50.8007 34.8571 49.6058C34.5421 49.4314 34.2334 49.2472 33.9356 49.0461C32.2333 47.9071 30.8852 46.2374 30.5476 44.1956C30.2716 42.5196 30.7454 40.7491 32.0469 39.5946C34.0548 37.8151 36.7694 38.3909 38.8182 39.763C39.5577 40.2562 40.2419 40.837 40.8712 41.4633C41.1647 41.7577 41.4539 42.0732 41.7326 42.4037L49.8777 22.5289L23.281 11.9107Z" fill="#EBAA4B"/>
</svg>
