<svg width="51" height="55" viewBox="0 0 51 55" fill="none" xmlns="http://www.w3.org/2000/svg">
<path d="M8.79488 24.0123L21.4476 48.7812L21.1255 48.9354C21.1585 51.6707 17.9423 53.6162 15.5781 54.4204C15.2357 54.535 14.89 54.6385 14.5388 54.7228C12.539 55.213 10.3725 55.0992 8.59907 54.0076C7.14266 53.1118 6.11257 51.6109 6.10527 49.9106C6.09324 47.2897 8.34014 45.6968 10.7461 45.1085C11.6152 44.8939 12.5124 44.7774 13.4057 44.7312C13.8275 44.7115 14.259 44.7064 14.6958 44.7203L0 15.9519L33.3104 0L51 34.6287L50.678 34.783C50.711 37.5183 47.4964 39.4632 45.1322 40.2672C44.7899 40.3817 44.4441 40.4852 44.0929 40.5697C42.0931 41.0598 39.9268 40.946 38.1515 39.8555C36.6951 38.9597 35.6667 37.4579 35.6579 35.7585C35.6456 33.1377 37.8928 31.5447 40.3003 30.9556C41.1679 30.7417 42.065 30.6252 42.96 30.5782C43.3793 30.5576 43.8115 30.5542 44.2482 30.5682L34.5891 11.6597L8.79488 24.0123Z" fill="#BF6D28"/>
</svg>
