<svg width="50" height="57" viewBox="0 0 50 57" fill="none" xmlns="http://www.w3.org/2000/svg">
<path d="M8.62249 24.8853L21.0271 50.555L20.7113 50.7148C20.7436 53.5496 17.5905 55.5659 15.2727 56.3993C14.9371 56.518 14.598 56.6253 14.2539 56.7127C12.2932 57.2208 10.1691 57.1028 8.43046 55.9717C7.00261 55.0433 5.99272 53.4877 5.98556 51.7256C5.97376 49.0094 8.17661 47.3587 10.5354 46.749C11.3874 46.5265 12.267 46.4057 13.1429 46.3578C13.5565 46.3375 13.9795 46.3322 14.4077 46.3465L0 16.532L32.6573 0L50 35.888L49.6843 36.0479C49.7166 38.8828 46.5651 40.8982 44.2472 41.7315C43.9115 41.8502 43.5727 41.9575 43.2283 42.045C41.2677 42.5531 39.1439 42.4349 37.4033 41.3048C35.9755 40.3763 34.9671 38.8201 34.9585 37.0588C34.9464 34.3428 37.1496 32.6919 39.5099 32.0813C40.3605 31.8596 41.2401 31.7389 42.1175 31.6902C42.5286 31.6689 42.9523 31.6653 43.3805 31.6799L33.9108 12.0837L8.62249 24.8853Z" fill="#BF6D28"/>
</svg>
