<svg width="54" height="49" viewBox="0 0 54 49" fill="none" xmlns="http://www.w3.org/2000/svg">
<path fill-rule="evenodd" clip-rule="evenodd" d="M20.0427 11.9944L13.2302 39.5629L12.8896 39.4755C11.1227 41.6382 7.45673 41.0825 5.17183 40.1839C4.84215 40.0523 4.51722 39.9098 4.20089 39.749C2.3926 38.8403 0.85599 37.3508 0.251995 35.3501C-0.244309 33.7074 -0.0274738 31.8666 1.08062 30.5309C2.78809 28.4714 5.50243 28.6766 7.67687 29.7711C8.46374 30.1647 9.2074 30.6535 9.90191 31.1946C10.2284 31.4519 10.5527 31.7266 10.8683 32.02L18.7809 0L54 9.04153L44.4757 47.5842L44.1354 47.4968C42.3684 49.6595 38.7042 49.1044 36.4194 48.2058C36.0897 48.0742 35.7649 47.9317 35.4483 47.7709C33.6402 46.8622 32.1037 45.3726 31.4977 43.3715C31.0014 41.7288 31.22 39.8885 32.3265 38.5524C34.0338 36.4927 36.7482 36.6981 38.9244 37.7931C39.7097 38.1863 40.4531 38.675 41.1496 39.2166C41.4748 39.4716 41.7985 39.7482 42.1142 40.0414L47.3148 18.9958L20.0427 11.9944Z" fill="#EBAA4B"/>
</svg>
